<svg width="516" height="388" viewBox="0 0 516 388" fill="none" xmlns="http://www.w3.org/2000/svg">
<path d="M108.41 371.744C108.302 371.761 108.192 371.761 108.084 371.744C107.862 371.659 107.682 371.49 107.584 371.273C107.485 371.057 107.476 370.81 107.559 370.587C112.337 358.173 119.995 347.064 129.904 338.17C139.814 329.276 151.694 322.851 164.572 319.419C169.433 317.907 174.593 317.622 179.591 318.587C183.273 319.502 186.494 321.725 188.649 324.841C189.286 316.356 192.14 308.186 196.927 301.144C201.715 294.102 208.268 288.435 215.934 284.706C223.601 280.978 232.112 279.319 240.621 279.895C249.13 280.47 257.34 283.261 264.431 287.987C264.196 285.179 264.679 282.358 265.835 279.788C266.992 277.217 268.784 274.982 271.044 273.293C275.301 269.949 281.063 268.087 288.617 267.581C297.455 266.992 306.321 268.211 314.67 271.163C323.019 274.115 330.675 278.738 337.169 284.748C343.663 290.758 348.858 298.029 352.434 306.113C356.011 314.198 357.894 322.927 357.968 331.764C368.75 333.135 378.802 337.939 386.629 345.464C390.506 349.205 393.368 354.501 392.245 358.966C396.573 357.17 401.415 357.041 405.832 358.604C409.522 359.808 412.765 362.087 415.144 365.147C415.276 365.019 415.438 364.926 415.615 364.876C415.732 364.85 415.853 364.847 415.971 364.869C416.088 364.89 416.201 364.935 416.3 365.001C416.4 365.067 416.486 365.152 416.552 365.252C416.618 365.351 416.663 365.463 416.684 365.581L417.572 369.756C417.617 369.981 417.574 370.214 417.453 370.409C417.332 370.603 417.141 370.745 416.92 370.804C416.699 370.867 416.462 370.842 416.259 370.734C416.057 370.626 415.904 370.444 415.833 370.226C414.884 367.916 413.449 365.836 411.625 364.127C409.801 362.419 407.63 361.121 405.259 360.322C402.888 359.524 400.373 359.243 397.884 359.498C395.395 359.754 392.99 360.54 390.832 361.803C390.658 361.919 390.45 361.972 390.242 361.952C390.034 361.932 389.839 361.841 389.69 361.695C389.542 361.544 389.45 361.346 389.43 361.136C389.411 360.925 389.464 360.714 389.582 360.538C392.372 356.526 389.473 350.724 385.379 346.765C377.609 339.314 367.592 334.632 356.881 333.444C356.66 333.418 356.457 333.311 356.31 333.144C356.163 332.978 356.082 332.763 356.084 332.541C356.133 323.877 354.392 315.296 350.969 307.333C347.546 299.371 342.515 292.198 336.189 286.261C329.863 280.325 322.379 275.754 314.203 272.832C306.028 269.91 297.336 268.701 288.672 269.28C281.425 269.75 275.99 271.503 272.095 274.702C267.167 278.552 264.848 284.752 266.66 289.777C266.717 289.958 266.716 290.153 266.658 290.334C266.599 290.515 266.486 290.674 266.334 290.789C266.18 290.905 265.992 290.967 265.799 290.967C265.606 290.967 265.419 290.905 265.265 290.789C258.228 285.595 249.877 282.465 241.153 281.751C232.429 281.037 223.679 282.766 215.887 286.745C208.095 290.724 201.571 296.794 197.05 304.272C192.53 311.75 190.191 320.338 190.298 329.07C190.295 329.299 190.209 329.518 190.055 329.688C189.902 329.858 189.692 329.966 189.465 329.992C189.24 330.002 189.02 329.934 188.841 329.798C188.662 329.663 188.537 329.469 188.486 329.251C187.653 324.479 183.178 321.316 179.12 320.214C174.412 319.333 169.56 319.618 164.989 321.045C152.395 324.412 140.778 330.706 131.089 339.411C121.401 348.116 113.915 358.985 109.244 371.13C109.189 371.308 109.079 371.464 108.929 371.574C108.779 371.685 108.597 371.745 108.41 371.744Z" fill="#D1D3D4"/>
<path d="M330.431 205.26C383.24 205.26 426.051 162.55 426.051 109.863C426.051 57.1769 383.24 14.4662 330.431 14.4662C277.621 14.4662 234.811 57.1769 234.811 109.863C234.811 162.55 277.621 205.26 330.431 205.26Z" fill="white"/>
<path d="M330.467 206.164C311.376 206.164 292.714 200.516 276.84 189.934C260.966 179.353 248.594 164.313 241.289 146.716C233.983 129.119 232.071 109.756 235.796 91.0758C239.52 72.3952 248.713 55.2361 262.213 41.7682C275.712 28.3003 292.911 19.1285 311.636 15.4127C330.36 11.6969 349.768 13.604 367.406 20.8928C385.043 28.1815 400.119 40.5247 410.725 56.3613C421.331 72.1979 426.993 90.8166 426.993 109.863C426.964 135.395 416.785 159.873 398.689 177.926C380.593 195.98 356.058 206.135 330.467 206.164ZM330.467 15.3697C311.734 15.3697 293.422 20.9117 277.846 31.2948C262.271 41.6778 250.131 56.4357 242.962 73.7021C235.794 90.9685 233.918 109.968 237.573 128.298C241.227 146.628 250.248 163.465 263.494 176.68C276.74 189.895 293.616 198.895 311.989 202.541C330.362 206.187 349.406 204.316 366.712 197.164C384.019 190.012 398.811 177.9 409.219 162.361C419.626 146.821 425.181 128.552 425.181 109.863C425.152 84.8107 415.164 60.7927 397.408 43.0779C379.652 25.3632 355.578 15.3984 330.467 15.3697Z" fill="#D1D3D4"/>
<path d="M330.467 374.437C330.228 374.433 330 374.336 329.831 374.168C329.663 373.999 329.566 373.772 329.561 373.534V36.553C329.561 36.3133 329.656 36.0835 329.826 35.914C329.996 35.7445 330.227 35.6493 330.467 35.6493C330.707 35.6493 330.937 35.7445 331.107 35.914C331.277 36.0835 331.373 36.3133 331.373 36.553V373.534C331.373 373.773 331.277 374.003 331.107 374.173C330.937 374.342 330.707 374.437 330.467 374.437Z" fill="#D1D3D4"/>
<path d="M330.467 149.085C330.254 149.084 330.048 149.007 329.887 148.868C329.705 148.71 329.591 148.488 329.571 148.248C329.551 148.008 329.625 147.77 329.778 147.584L367.823 102.904C367.98 102.722 368.202 102.609 368.441 102.591C368.56 102.582 368.679 102.596 368.792 102.632C368.906 102.669 369.01 102.728 369.101 102.805C369.191 102.882 369.265 102.976 369.319 103.082C369.373 103.188 369.406 103.303 369.415 103.421C369.424 103.54 369.41 103.659 369.373 103.772C369.336 103.884 369.278 103.989 369.2 104.079L331.155 148.759C331.072 148.861 330.967 148.943 330.848 148.999C330.729 149.056 330.599 149.085 330.467 149.085Z" fill="#D1D3D4"/>
<path d="M330.467 119.352C330.279 119.351 330.096 119.295 329.941 119.189L281.479 84.848C281.282 84.709 281.149 84.4976 281.108 84.2603C281.067 84.023 281.122 83.7793 281.262 83.5828C281.401 83.3862 281.613 83.2529 281.851 83.2123C282.089 83.1716 282.333 83.2268 282.53 83.3659L330.992 117.707C331.151 117.818 331.27 117.976 331.332 118.159C331.394 118.341 331.396 118.539 331.337 118.723C331.278 118.907 331.162 119.067 331.005 119.18C330.849 119.293 330.66 119.354 330.467 119.352Z" fill="#D1D3D4"/>
<path d="M515.094 374.437H0.905835C0.667045 374.433 0.439329 374.336 0.270447 374.168C0.101565 373.999 0.00463801 373.772 0 373.534C0 373.294 0.0954353 373.064 0.265312 372.895C0.435189 372.725 0.665593 372.63 0.905835 372.63H515.094C515.334 372.63 515.565 372.725 515.735 372.895C515.905 373.064 516 373.294 516 373.534C515.995 373.772 515.898 373.999 515.73 374.168C515.561 374.336 515.333 374.433 515.094 374.437Z" fill="#D1D3D4"/>
<path d="M330.467 78.3232C330.341 78.3252 330.216 78.3004 330.1 78.2506C329.985 78.2007 329.881 78.1269 329.796 78.034C329.712 77.95 329.644 77.8501 329.598 77.7399C329.552 77.6298 329.529 77.5117 329.529 77.3924C329.529 77.2731 329.552 77.155 329.598 77.0448C329.644 76.9347 329.712 76.8348 329.796 76.7507L348.801 59.7607C348.981 59.6002 349.218 59.5175 349.459 59.5311C349.7 59.5447 349.926 59.6533 350.087 59.833C350.248 60.0128 350.331 60.249 350.317 60.4897C350.304 60.7303 350.195 60.9557 350.015 61.1163L330.992 78.1063C330.845 78.233 330.661 78.3091 330.467 78.3232Z" fill="#D1D3D4"/>
<path d="M352.026 123.69C351.813 123.693 351.607 123.62 351.444 123.484C351.281 123.348 351.173 123.158 351.138 122.949C351.101 122.712 351.158 122.47 351.296 122.275C351.435 122.079 351.645 121.945 351.881 121.901L378.222 117.563C378.341 117.543 378.463 117.546 378.581 117.573C378.698 117.6 378.81 117.649 378.908 117.719C379.007 117.789 379.09 117.877 379.154 117.979C379.219 118.081 379.262 118.194 379.282 118.313C379.302 118.432 379.299 118.553 379.272 118.671C379.245 118.788 379.196 118.899 379.126 118.997C379.056 119.095 378.968 119.179 378.865 119.243C378.763 119.307 378.649 119.35 378.53 119.37L352.207 123.69H352.026Z" fill="#D1D3D4"/>
<path d="M330.467 168.189C330.285 168.191 330.107 168.134 329.96 168.027L290.429 140.915C290.262 140.77 290.154 140.568 290.126 140.349C290.098 140.129 290.152 139.907 290.277 139.725C290.402 139.542 290.589 139.411 290.805 139.358C291.02 139.304 291.247 139.331 291.443 139.433L330.992 166.545C331.185 166.683 331.316 166.891 331.356 167.124C331.397 167.357 331.344 167.597 331.21 167.792C331.129 167.914 331.018 168.015 330.889 168.084C330.759 168.154 330.614 168.19 330.467 168.189Z" fill="#D1D3D4"/>
<path d="M307.205 102.814C307.028 102.815 306.855 102.764 306.707 102.667C306.559 102.571 306.442 102.434 306.372 102.272L294.396 73.6057C294.329 73.4951 294.286 73.3714 294.271 73.2429C294.256 73.1143 294.268 72.984 294.308 72.8608C294.347 72.7375 294.413 72.6242 294.5 72.5284C294.588 72.4327 294.695 72.3567 294.814 72.3057C294.933 72.2548 295.062 72.2299 295.192 72.2329C295.321 72.2359 295.449 72.2667 295.566 72.3231C295.682 72.3795 295.785 72.4603 295.868 72.56C295.951 72.6596 296.011 72.7759 296.045 72.9008L308.02 101.549C308.068 101.657 308.093 101.773 308.096 101.891C308.098 102.009 308.076 102.126 308.032 102.235C307.988 102.344 307.923 102.444 307.84 102.528C307.757 102.612 307.658 102.678 307.549 102.724C307.442 102.777 307.325 102.808 307.205 102.814Z" fill="#D1D3D4"/>
<path d="M70.4559 120.69C70.4559 120.69 59.5858 151.019 58.1365 159.333C56.6872 167.647 59.9482 224.69 64.2962 235.517C68.6442 246.344 77.3221 248.169 77.3221 245.259V232.987C77.3221 232.987 82.0324 240.939 83.4818 235.517C84.9311 230.095 77.0503 221.31 77.0503 218.419C77.0503 215.527 77.6844 165.478 78.7714 161.863C79.8584 158.249 92.051 127.341 92.051 127.341" fill="white"/>
<path d="M75.6191 247.392C72.2313 247.392 66.5608 243.777 63.4628 235.842C58.9518 224.6 55.89 166.942 57.2488 159.17C58.7162 150.892 69.1515 121.702 69.5863 120.401C69.6174 120.279 69.6736 120.166 69.7511 120.067C69.8286 119.969 69.9258 119.887 70.0365 119.828C70.1472 119.769 70.2691 119.734 70.3943 119.724C70.5195 119.714 70.6453 119.731 70.7638 119.772C70.8823 119.814 70.9908 119.879 71.0825 119.965C71.1742 120.051 71.2471 120.154 71.2965 120.269C71.3459 120.385 71.3708 120.509 71.3695 120.634C71.3683 120.759 71.3409 120.883 71.2892 120.997C71.1805 121.304 60.4192 151.344 59.0242 159.496C57.4843 168.334 60.9627 224.817 65.1296 235.174C68.4268 243.416 74.1879 245.91 75.9996 245.548C76.38 245.548 76.38 245.35 76.38 245.259V232.987C76.378 232.788 76.443 232.594 76.5646 232.437C76.6862 232.28 76.8573 232.168 77.0503 232.119C77.2417 232.065 77.4457 232.076 77.6297 232.152C77.8136 232.227 77.9669 232.362 78.0649 232.535C79.2425 234.487 81.1266 236.62 81.8694 236.493C82.0506 236.493 82.3404 236.15 82.5759 235.282C83.3731 232.264 80.7643 227.763 78.6627 224.148C77.4171 222.439 76.5467 220.486 76.1083 218.419C76.1083 217.912 76.688 165.533 77.9199 161.592C79.0069 157.978 90.7285 128.263 91.2176 126.998C91.3101 126.778 91.4845 126.602 91.7041 126.508C91.9237 126.413 92.1714 126.408 92.3952 126.492C92.5059 126.536 92.6068 126.601 92.6923 126.684C92.7777 126.766 92.8459 126.865 92.893 126.974C92.9401 127.083 92.9652 127.201 92.9668 127.319C92.9685 127.438 92.9466 127.556 92.9025 127.667C92.7756 127.974 80.728 158.592 79.6591 162.117C78.5903 165.641 77.9743 214.153 77.9743 218.419C78.4825 220.141 79.2655 221.77 80.2932 223.244C82.5578 227.149 85.3659 232.011 84.3695 235.752C83.9528 237.288 83.2281 238.138 82.1774 238.282C80.7824 238.463 79.3512 237.198 78.246 235.86V245.259C78.2465 245.765 78.0633 246.255 77.7303 246.637C77.3973 247.019 76.937 247.268 76.4344 247.338C76.1646 247.378 75.8919 247.396 75.6191 247.392Z" fill="#231F20"/>
<path d="M156.365 130.504C156.365 130.504 191.095 176.956 193.994 179.902C196.892 182.848 209.646 186.77 210.19 187.836C210.733 188.903 209.646 200.272 207.744 202.441C205.842 204.61 197.979 204.61 195.262 202.441C192.544 200.272 188.015 190.801 188.015 190.801L146.093 163.689L156.365 130.504Z" fill="white"/>
<path d="M201.838 204.953C199.359 205.087 196.898 204.456 194.791 203.146C192.164 201.049 188.07 192.933 187.327 191.415L145.658 164.484C145.495 164.374 145.37 164.215 145.302 164.03C145.233 163.845 145.225 163.644 145.278 163.454L155.623 130.233C155.671 130.075 155.763 129.934 155.888 129.825C156.013 129.717 156.166 129.645 156.329 129.619C156.494 129.586 156.666 129.601 156.823 129.661C156.98 129.722 157.117 129.827 157.217 129.962C157.561 130.432 191.947 176.413 194.773 179.269C196.349 180.878 201.585 182.992 205.407 184.529C209.737 186.336 210.842 186.77 211.132 187.421C211.929 188.993 210.57 200.742 208.56 203.037C207.273 204.302 204.574 204.953 201.838 204.953ZM147.18 163.382L188.522 190.096C188.653 190.19 188.759 190.314 188.83 190.457C190.099 193.042 193.831 200.109 195.914 201.79C198.396 203.778 205.697 203.597 207.165 201.898C208.632 200.199 209.791 190.132 209.483 188.361C207.923 187.575 206.32 186.875 204.683 186.264C200.498 184.583 195.28 182.468 193.432 180.589C190.787 177.895 162.742 140.481 156.782 132.51L147.18 163.382Z" fill="#231F20"/>
<path d="M62.9555 309.08L108.972 273.636L106.834 231.541L147.271 233.71L145.568 287.156L66.3977 332.288L62.9555 309.08Z" fill="white"/>
<path d="M66.3977 333.173C66.1779 333.175 65.9648 333.098 65.7982 332.955C65.6315 332.812 65.5226 332.613 65.4919 332.396L62.0497 309.188C62.0297 309.029 62.0508 308.868 62.111 308.719C62.1713 308.57 62.2687 308.439 62.3939 308.339L108.048 273.184L105.928 231.613C105.923 231.486 105.945 231.359 105.991 231.24C106.038 231.122 106.108 231.014 106.198 230.924C106.288 230.834 106.396 230.764 106.515 230.717C106.634 230.671 106.761 230.65 106.889 230.655L147.325 232.824C147.562 232.838 147.784 232.944 147.943 233.12C148.103 233.296 148.186 233.527 148.177 233.764L146.455 287.192C146.453 287.347 146.41 287.498 146.331 287.632C146.251 287.765 146.138 287.875 146.003 287.951L66.8325 333.137C66.6926 333.184 66.5435 333.196 66.3977 333.173ZM63.9338 309.46L67.0862 330.824L144.662 286.595L146.347 234.541L107.794 232.48L109.878 273.527C109.885 273.674 109.856 273.82 109.793 273.953C109.729 274.085 109.634 274.2 109.515 274.287L63.9338 309.46Z" fill="#231F20"/>
<path d="M108.972 247.139L156.546 350.199L176.692 348.898L145.205 232.462L108.972 247.139Z" fill="white"/>
<path d="M156.546 351.103C156.374 351.104 156.205 351.055 156.061 350.962C155.916 350.869 155.802 350.736 155.731 350.579L108.139 247.555C108.047 247.328 108.047 247.076 108.139 246.85C108.182 246.734 108.25 246.629 108.338 246.542C108.425 246.455 108.53 246.387 108.646 246.344L144.879 231.667C144.997 231.618 145.123 231.593 145.251 231.593C145.378 231.593 145.504 231.618 145.622 231.667C145.738 231.724 145.84 231.805 145.922 231.904C146.003 232.004 146.061 232.121 146.093 232.245L177.58 348.681C177.616 348.81 177.622 348.946 177.597 349.078C177.572 349.21 177.516 349.334 177.435 349.44C177.359 349.55 177.259 349.641 177.143 349.707C177.027 349.772 176.898 349.811 176.765 349.82L156.619 351.121L156.546 351.103ZM110.186 247.609L157.108 349.26L175.533 348.067L144.589 233.764L110.186 247.609Z" fill="#231F20"/>
<path d="M156.546 350.199L164.916 373.1C164.916 373.1 212.473 357.375 215.643 354.393C218.814 351.41 208.523 347.488 206.585 348.048C204.646 348.609 196.82 350.416 194.102 350C191.385 349.585 174.174 342.969 174.174 342.969L156.546 350.199Z" fill="#231F20"/>
<path d="M164.916 374.004C164.733 374.002 164.554 373.944 164.405 373.838C164.255 373.731 164.143 373.58 164.083 373.407L155.695 350.507C155.617 350.288 155.626 350.048 155.72 349.836C155.815 349.624 155.987 349.457 156.202 349.368L173.775 342.138C173.882 342.094 173.996 342.071 174.111 342.071C174.226 342.071 174.34 342.094 174.446 342.138C179.174 343.946 191.965 348.79 194.121 349.115C196.566 349.495 203.958 347.796 206.222 347.181C208.487 346.566 215.154 349.133 216.712 351.88C217.02 352.381 217.139 352.975 217.046 353.556C216.953 354.136 216.654 354.664 216.205 355.043C213.034 358.08 170.098 372.341 165.206 373.949C165.114 373.985 165.015 374.003 164.916 374.004ZM157.67 350.706L165.442 371.961C184.482 365.653 212.799 355.803 214.955 353.742C215.031 353.69 215.096 353.623 215.146 353.545C215.196 353.467 215.229 353.38 215.244 353.289C215.26 353.197 215.256 353.104 215.234 353.014C215.213 352.925 215.173 352.84 215.118 352.766C213.904 350.615 207.744 348.609 206.693 348.916C204.882 349.422 196.82 351.356 193.831 350.886C191.222 350.489 176.602 344.904 174.102 343.946L157.67 350.706Z" fill="#231F20"/>
<path d="M62.9556 309.08L38.1176 321.317C38.1176 321.317 32.6826 363.701 33.6971 367.876C34.7116 372.052 43.2446 365.183 43.77 363.195C45.883 357.906 48.4595 352.814 51.4696 347.976C53.1907 345.844 66.3253 332.288 66.3253 332.288L62.9556 309.08Z" fill="#231F20"/>
<path d="M35.3457 370.118C34.7558 370.132 34.1801 369.936 33.7219 369.565C33.2638 369.194 32.9531 368.672 32.8456 368.093C31.831 363.864 36.7044 325.546 37.2661 321.19C37.284 321.044 37.3381 320.905 37.4235 320.785C37.5089 320.665 37.6229 320.568 37.7552 320.503L62.5932 308.267C62.72 308.205 62.8595 308.172 63.0008 308.172C63.1422 308.172 63.2816 308.205 63.4084 308.267C63.536 308.331 63.6457 308.426 63.7279 308.543C63.81 308.659 63.8621 308.794 63.8795 308.936L67.3217 332.125C67.3406 332.263 67.3276 332.403 67.2837 332.534C67.2397 332.666 67.1659 332.786 67.068 332.884C66.9412 333.029 53.9696 346.44 52.2848 348.519C49.3255 353.25 46.7798 358.227 44.6758 363.394C44.0961 365.473 38.5161 370.118 35.3457 370.118ZM38.969 321.895C36.795 338.885 33.8782 364.75 34.5848 367.678C34.6935 368.148 34.8928 368.31 35.3457 368.31C37.8277 368.31 42.5924 364.027 42.9003 362.888C45.076 357.481 47.7316 352.279 50.8355 347.344C52.4479 345.356 63.3903 334.005 65.4375 331.908L62.3396 310.436L38.969 321.895Z" fill="#231F20"/>
<path d="M93.138 175.925C93.138 175.925 84.1883 201.555 89.0255 221.419C93.8626 241.283 111.599 264.798 111.599 264.798L155.713 252.146L152.488 181.004L93.138 175.925Z" fill="#231F20"/>
<path d="M111.545 265.557C111.404 265.554 111.267 265.52 111.141 265.458C111.016 265.395 110.906 265.306 110.82 265.195C110.639 264.96 92.9206 241.373 88.0834 221.563C83.2462 201.754 91.8698 176.63 92.2321 175.564C92.2964 175.375 92.4226 175.214 92.5903 175.106C92.7579 174.997 92.9573 174.949 93.1561 174.967L152.506 180.028C152.725 180.045 152.93 180.141 153.083 180.297C153.236 180.453 153.327 180.66 153.34 180.878L156.546 252.019C156.554 252.221 156.495 252.419 156.376 252.583C156.258 252.747 156.088 252.866 155.894 252.923L111.762 265.575L111.545 265.557ZM93.7177 176.811C92.3771 180.95 85.5471 203.525 89.8407 221.148C94.1344 238.77 109.334 260.134 111.889 263.605L154.735 251.386L151.564 181.745L93.7177 176.811Z" fill="#231F20"/>
<path d="M155.659 252.959C155.47 252.96 155.285 252.901 155.132 252.791C154.979 252.68 154.865 252.524 154.807 252.344C154.662 251.892 139.444 206.851 135.531 199.043C135.429 198.831 135.414 198.588 135.488 198.366C135.563 198.143 135.721 197.958 135.93 197.85C136.035 197.794 136.151 197.76 136.269 197.75C136.388 197.74 136.508 197.754 136.621 197.791C136.734 197.829 136.839 197.888 136.929 197.966C137.019 198.045 137.092 198.14 137.143 198.247C141.111 206.146 155.894 249.922 156.51 251.766C156.55 251.879 156.567 251.998 156.561 252.117C156.554 252.237 156.524 252.354 156.471 252.461C156.419 252.569 156.346 252.665 156.256 252.744C156.167 252.823 156.062 252.884 155.949 252.923L155.659 252.959Z" fill="white"/>
<path d="M141.383 217.497C141.204 217.496 141.029 217.442 140.881 217.343C140.733 217.243 140.617 217.102 140.549 216.937C140.386 216.539 140.35 216.485 143.955 203.833C143.987 203.719 144.04 203.613 144.113 203.521C144.186 203.429 144.276 203.352 144.379 203.294C144.482 203.237 144.595 203.201 144.712 203.188C144.829 203.175 144.947 203.185 145.06 203.218C145.292 203.285 145.487 203.44 145.606 203.65C145.724 203.859 145.756 204.106 145.695 204.339C144.444 208.713 142.433 215.852 142.27 216.647C142.262 216.812 142.206 216.972 142.11 217.106C142.013 217.24 141.881 217.345 141.727 217.406C141.62 217.462 141.503 217.492 141.383 217.497Z" fill="white"/>
<path d="M93.138 175.925V131.986L84.0796 156.911L57.8104 144.602C57.8104 144.602 70.7638 100.013 87.5399 91.9152C104.316 83.8179 154.427 83.0949 160.931 92.2948C167.435 101.495 152.434 180.86 152.434 180.86L93.138 175.925Z" fill="#08CAB3"/>
<path d="M107.432 60.4294C107.432 60.4294 93.8445 66.394 94.388 71.9971C94.9315 77.6002 120.693 69.051 120.693 69.051L107.432 60.4294Z" fill="#231F20"/>
<path d="M98.6817 74.7082C97.2998 74.8046 95.9173 74.53 94.6779 73.9129C94.3586 73.7187 94.0871 73.4555 93.8833 73.1427C93.6795 72.8299 93.5486 72.4754 93.5003 72.1055C92.9025 66.0505 105.62 60.2847 107.07 59.6521C107.199 59.5776 107.346 59.5383 107.495 59.5383C107.645 59.5383 107.792 59.5776 107.921 59.6521L121.201 68.2556C121.342 68.3496 121.453 68.4811 121.523 68.6353C121.593 68.7894 121.618 68.96 121.595 69.1275C121.572 69.2951 121.503 69.453 121.395 69.5832C121.287 69.7134 121.144 69.8108 120.983 69.8642C119.19 70.4968 106.055 74.7082 98.6817 74.7082ZM107.36 61.4054C103.483 63.2128 94.9134 67.9483 95.2939 71.8524C95.3047 71.968 95.3454 72.0787 95.4121 72.1738C95.4789 72.2689 95.5692 72.345 95.6743 72.3947C98.3918 74.2021 110.494 71.274 118.628 68.7798L107.36 61.4054Z" fill="#231F20"/>
<path d="M151.111 47.3617C150.858 46.8014 150.568 46.2591 150.26 45.7169C146.745 39.6439 135.767 40.4391 129.951 41.5236C124.45 42.3239 119.247 44.5209 114.842 47.9039C106.363 54.9529 107.142 69.5933 110.675 79.0281C110.751 79.16 110.791 79.3096 110.791 79.4619C110.791 79.6142 110.751 79.7638 110.675 79.8957C110.508 80.0194 110.303 80.0831 110.095 80.0765L107.523 80.2391C107.683 81.2155 108.191 82.1013 108.954 82.7334C111.575 85.1316 114.716 86.8945 118.131 87.8851C121.547 88.8757 125.145 89.0673 128.647 88.4449C138.538 86.8725 151.619 79.1908 153.376 68.563C154.806 61.4309 154.016 54.033 151.111 47.3617Z" fill="white"/>
<path d="M124.625 89.692C118.541 89.8108 112.651 87.5537 108.211 83.4021C107.275 82.6063 106.668 81.492 106.508 80.2752C106.501 80.1541 106.517 80.0327 106.557 79.9181C106.597 79.8034 106.659 79.6977 106.74 79.6071C106.821 79.5164 106.919 79.4425 107.028 79.3897C107.137 79.3368 107.256 79.3061 107.378 79.2992L109.642 79.1727C105.82 68.7075 105.602 54.3022 114.153 47.1808C118.677 43.6832 124.033 41.4164 129.697 40.6017C134.752 39.6799 146.963 38.2701 150.966 45.2649C151.297 45.8157 151.599 46.3827 151.872 46.9639C154.867 53.781 155.713 61.3452 154.3 68.6533C152.361 80.474 138.212 87.9026 128.792 89.4028C127.412 89.6074 126.019 89.7041 124.625 89.692ZM108.7 81.0885C108.938 81.4514 109.218 81.7851 109.534 82.0826C112.064 84.3823 115.092 86.068 118.382 87.0086C121.672 87.9491 125.135 88.119 128.502 87.505C138.774 85.8783 150.858 78.0701 152.47 68.2918C153.805 61.3687 153.009 54.2047 150.187 47.7411C149.934 47.217 149.644 46.6747 149.354 46.1687C145.839 40.0414 133.683 41.7404 130.042 42.4092C124.692 43.1723 119.631 45.3016 115.349 48.5906C107.794 54.8806 107.668 68.4726 111.472 78.6846C111.602 78.9766 111.652 79.2977 111.617 79.6152C111.582 79.9327 111.463 80.2352 111.273 80.4921C110.946 80.8066 110.513 80.9872 110.059 80.9982L108.7 81.0885Z" fill="#231F20"/>
<path d="M144.3 85.3361L144.608 99.3257C144.608 99.3257 139.952 107.73 131.038 105.091C128.413 104.289 125.999 102.915 123.972 101.067C121.944 99.2199 120.354 96.9457 119.317 94.4095L120.693 69.1052C120.693 69.1052 127.56 65.8337 126.328 51.2115C126.328 51.2115 134.825 50.2354 148.321 49.2052C148.321 49.2052 152.887 71.5453 151.438 78.4678C149.988 85.3903 144.3 85.3361 144.3 85.3361Z" fill="white"/>
<path d="M134.408 106.537C133.18 106.53 131.96 106.347 130.784 105.995C128.02 105.155 125.481 103.705 123.354 101.753C121.228 99.8004 119.569 97.3956 118.501 94.7167C118.474 94.6038 118.474 94.4862 118.501 94.3733L119.878 69.069C119.885 68.9013 119.937 68.7386 120.03 68.5984C120.123 68.4583 120.252 68.346 120.404 68.2738C120.404 68.2738 126.672 65.0384 125.513 51.4103C125.487 51.1684 125.559 50.9263 125.711 50.7367C125.864 50.5471 126.086 50.4254 126.328 50.3981C126.328 50.3981 135.006 49.404 148.358 48.3918C148.584 48.3701 148.811 48.4343 148.992 48.5716C149.173 48.709 149.296 48.9093 149.336 49.1329C149.535 50.0547 153.938 71.744 152.47 78.7569C152.241 80.5967 151.428 82.3151 150.15 83.6613C148.873 85.0075 147.197 85.9109 145.368 86.2398L145.64 99.3799C145.641 99.5429 145.604 99.7038 145.531 99.8499C145.531 99.8499 141.582 106.537 134.408 106.537ZM120.313 94.2649C121.323 96.6215 122.835 98.731 124.743 100.447C126.651 102.164 128.91 103.446 131.364 104.206C138.774 106.393 142.941 100.338 143.72 99.0907L143.412 85.3541C143.417 85.1055 143.514 84.8674 143.684 84.6854C143.771 84.5975 143.876 84.5282 143.991 84.4817C144.106 84.4351 144.23 84.4122 144.354 84.4143C144.571 84.4143 149.318 84.4143 150.586 78.3051C151.854 72.1959 148.358 54.2841 147.488 50.2354C137.071 51.0307 129.716 51.8079 127.252 52.0429C128.049 64.2431 123.157 68.4906 121.527 69.557L120.313 94.2649Z" fill="#231F20"/>
<path d="M126.002 68.8701C125.762 67.6253 125.127 66.4908 124.19 65.6348C123.273 64.863 122.232 64.2519 121.11 63.8274C120.543 63.5596 119.926 63.4119 119.299 63.3936C118.84 63.4436 118.397 63.5849 117.994 63.8093C117.002 64.2344 116.193 64.9965 115.711 65.9601C115.421 66.7829 115.334 67.6633 115.458 68.5267C115.517 69.4698 115.706 70.4004 116.019 71.2921C116.346 72.1781 116.845 72.9905 117.489 73.6821C118.132 74.3738 118.907 74.9309 119.769 75.3211C120.63 75.7113 121.561 75.9267 122.506 75.9549C123.452 75.9831 124.394 75.8235 125.277 75.4854" fill="white"/>
<path d="M122.632 76.9493C120.978 76.9457 119.365 76.4384 118.009 75.4952C116.652 74.552 115.617 73.218 115.041 71.6715C114.701 70.7046 114.499 69.6945 114.443 68.6712C114.297 67.6551 114.402 66.6186 114.751 65.6527C115.315 64.473 116.286 63.5359 117.487 63.0139C118 62.7485 118.56 62.5829 119.135 62.5259C119.932 62.5114 120.72 62.6848 121.436 63.0319C122.651 63.4329 123.786 64.0448 124.788 64.8394C125.891 65.8279 126.641 67.1475 126.926 68.5989C126.969 68.8428 126.915 69.0939 126.777 69.2995C126.638 69.505 126.426 69.6491 126.183 69.7014C126.063 69.7249 125.939 69.7244 125.819 69.6997C125.699 69.6751 125.585 69.6269 125.484 69.5579C125.383 69.489 125.296 69.4006 125.23 69.298C125.163 69.1954 125.118 69.0807 125.096 68.9604C124.879 67.9092 124.333 66.9538 123.538 66.2311C122.7 65.5495 121.75 65.0175 120.73 64.6587C120.269 64.4433 119.77 64.3204 119.262 64.2972C118.931 64.3368 118.611 64.4412 118.32 64.6044C117.537 64.9353 116.896 65.5303 116.509 66.2853C116.291 66.9743 116.229 67.7026 116.327 68.4181C116.381 69.2747 116.552 70.12 116.835 70.9305C117.413 72.4843 118.586 73.7454 120.096 74.4369C121.616 75.1075 123.339 75.1594 124.897 74.5815C125.137 74.4929 125.403 74.503 125.635 74.6098C125.868 74.7166 126.049 74.9112 126.138 75.1509C126.226 75.3906 126.216 75.6557 126.109 75.8879C126.002 76.12 125.807 76.3003 125.567 76.389C124.632 76.7566 123.637 76.9466 122.632 76.9493Z" fill="#231F20"/>
<path d="M144.136 92.2768C142.467 92.3771 140.796 92.121 139.234 91.5257C137.672 90.9304 136.255 90.0095 135.078 88.8245C131.31 84.7939 131.763 82.6069 131.763 82.6069C131.763 82.6069 137.959 86.4206 143.865 85.5531L144.136 92.2768Z" fill="#231F20"/>
<path d="M143.43 93.1984C141.744 93.2147 140.072 92.8899 138.515 92.2438C136.958 91.5976 135.549 90.6435 134.372 89.4389C130.386 85.1914 130.748 82.6972 130.748 82.426C130.778 82.284 130.841 82.151 130.933 82.0379C131.024 81.9248 131.141 81.8349 131.274 81.7754C131.402 81.7088 131.545 81.6741 131.69 81.6741C131.835 81.6741 131.978 81.7088 132.107 81.7754C132.107 81.7754 138.14 85.3903 143.702 84.595C143.827 84.5771 143.954 84.5855 144.076 84.6198C144.198 84.654 144.311 84.7133 144.408 84.7938C144.506 84.8766 144.586 84.9788 144.642 85.0939C144.698 85.2091 144.729 85.3346 144.734 85.4626L144.934 92.1863C144.944 92.4124 144.867 92.634 144.719 92.8055C144.571 92.9769 144.362 93.0852 144.136 93.1081C143.903 93.1547 143.667 93.1849 143.43 93.1984ZM132.995 84.2696C133.667 85.7329 134.6 87.0619 135.748 88.1918C137.722 90.2028 140.41 91.3584 143.231 91.4091L143.086 86.529C139.586 86.6293 136.116 85.8525 132.995 84.2696Z" fill="#231F20"/>
<path d="M141.383 63.8635C141.383 63.8635 146.003 70.9668 144.861 72.1778C143.72 73.3888 140.586 72.5212 140.586 72.5212" fill="white"/>
<path d="M142.76 73.7141C141.947 73.6959 141.139 73.5868 140.35 73.3888C140.121 73.3175 139.928 73.1619 139.811 72.9537C139.693 72.7455 139.659 72.5004 139.716 72.2682C139.78 72.0388 139.931 71.8437 140.138 71.7253C140.345 71.6068 140.591 71.5746 140.821 71.6356C141.89 71.9248 143.684 72.0874 144.209 71.6356C143.416 69.04 142.191 66.596 140.586 64.4058C140.454 64.2044 140.407 63.959 140.456 63.7234C140.505 63.4878 140.647 63.2814 140.848 63.1496C141.05 63.0178 141.296 62.9713 141.532 63.0205C141.768 63.0696 141.975 63.2103 142.107 63.4117C145.441 68.5267 146.564 71.7079 145.495 72.8465C145.123 73.1694 144.688 73.413 144.217 73.5621C143.747 73.7113 143.251 73.763 142.76 73.7141Z" fill="#231F20"/>
<path d="M141.528 77.5821C141.528 77.5821 136.238 79.2088 134.879 74.0938L141.528 77.5821Z" fill="white"/>
<path d="M139.662 78.7207C138.621 78.7438 137.592 78.5011 136.672 78.0158C136.004 77.6271 135.423 77.1058 134.965 76.484C134.507 75.8622 134.182 75.1532 134.009 74.4009C133.976 74.287 133.967 74.1677 133.981 74.05C133.996 73.9323 134.033 73.8187 134.093 73.7159C134.152 73.613 134.231 73.5231 134.326 73.4514C134.42 73.3797 134.528 73.3277 134.643 73.2984C134.759 73.2685 134.879 73.2617 134.997 73.2782C135.115 73.2948 135.229 73.3344 135.331 73.3948C135.434 73.4553 135.524 73.5354 135.595 73.6305C135.667 73.7256 135.719 73.8338 135.748 73.9491C135.858 74.4754 136.076 74.9735 136.388 75.412C136.699 75.8506 137.099 76.2201 137.56 76.4976C138.725 77.0274 140.041 77.1299 141.274 76.7868C141.514 76.7173 141.772 76.7458 141.991 76.8661C142.211 76.9865 142.373 77.1887 142.443 77.4284C142.512 77.6681 142.484 77.9256 142.363 78.1442C142.242 78.3628 142.04 78.5247 141.799 78.5942C141.096 78.731 140.377 78.7736 139.662 78.7207Z" fill="#231F20"/>
<path d="M133.685 65.1512C134.313 65.0249 134.676 64.2007 134.496 63.3102C134.316 62.4197 133.661 61.8002 133.033 61.9265C132.405 62.0528 132.042 62.877 132.222 63.7675C132.402 64.6579 133.057 65.2774 133.685 65.1512Z" fill="#231F20"/>
<path d="M145.996 65.4312C146.624 65.3049 146.987 64.4807 146.807 63.5902C146.627 62.6998 145.972 62.0803 145.345 62.2065C144.717 62.3328 144.354 63.157 144.534 64.0475C144.714 64.938 145.369 65.5575 145.996 65.4312Z" fill="#231F20"/>
<path d="M107.432 60.4294L153.195 51.2114C153.195 51.2114 153.557 31.8717 128.592 33.3177C103.628 34.7637 107.432 60.4294 107.432 60.4294Z" fill="white"/>
<path d="M107.432 61.3695C107.244 61.3709 107.061 61.314 106.907 61.2068C106.801 61.1334 106.711 61.0395 106.643 60.9309C106.575 60.8222 106.529 60.7009 106.508 60.5742C106.508 60.0862 104.787 48.392 111.526 40.132C115.349 35.4507 121.074 32.9022 128.538 32.4322C137.288 31.9262 143.992 33.842 148.466 38.1618C151.968 41.6226 153.999 46.2961 154.137 51.2116C154.137 51.4247 154.063 51.6312 153.927 51.7959C153.792 51.9607 153.604 52.0736 153.394 52.1153L107.631 61.3514L107.432 61.3695ZM131.201 34.2578C130.368 34.2578 129.516 34.2578 128.647 34.2578C121.726 34.6554 116.454 37.0051 112.976 41.2526C107.849 47.5606 108.03 56.3628 108.265 59.3271L152.235 50.4886C151.921 46.3315 150.121 42.4251 147.162 39.4813C143.502 35.9748 138.14 34.2035 131.183 34.2035L131.201 34.2578Z" fill="#231F20"/>
<path d="M136.22 54.6637C136.22 54.6637 135.712 47.3074 141.528 46.3313C148.231 45.1746 148.883 52.1152 148.883 52.1152L136.22 54.6637Z" fill="#231F20"/>
<path d="M136.22 55.5675C136.015 55.5649 135.818 55.495 135.658 55.3686C135.556 55.292 135.473 55.1939 135.413 55.0815C135.354 54.9691 135.32 54.8449 135.314 54.718C135.114 51.8983 136.129 46.3314 141.365 45.4457C142.298 45.2369 143.266 45.2288 144.203 45.422C145.14 45.6152 146.025 46.0053 146.8 46.5664C148.402 47.9537 149.429 49.8868 149.68 51.9887C149.698 52.2092 149.634 52.4285 149.5 52.605C149.367 52.7816 149.173 52.9031 148.956 52.9466L136.274 55.4952L136.22 55.5675ZM142.941 47.0905C142.515 47.0986 142.091 47.1409 141.673 47.217C137.904 47.8496 137.216 51.6814 137.125 53.5612L147.832 51.4103C147.546 50.0726 146.827 48.8659 145.785 47.9762C144.962 47.3732 143.961 47.0615 142.941 47.0905Z" fill="#231F20"/>
<path d="M190.298 274.54C190.058 274.54 189.827 274.445 189.657 274.275C189.487 274.106 189.392 273.876 189.392 273.636C189.392 249.434 189.392 224.401 196.965 200.814C197.997 197.633 199.537 195.952 201.548 195.789C203.559 195.627 205.172 196.982 206.585 199.531C207.109 200.521 207.574 201.541 207.98 202.585L208.251 202.856C209.471 204.314 210.416 205.98 211.041 207.773C214.194 215.436 217.328 224.311 214.864 232.679C214.266 234.668 212.799 236.855 210.534 236.493C209.929 236.334 209.369 236.035 208.9 235.621C208.431 235.206 208.066 234.688 207.835 234.107C207.246 236.228 205.973 238.096 204.211 239.421C203.502 239.976 202.61 240.246 201.711 240.18C199.7 239.963 198.813 237.74 198.523 236.999C194.698 227.247 194.448 216.462 197.816 206.544C198.94 203.29 200.498 201.447 202.581 200.904C202.752 200.849 202.928 200.813 203.106 200.796C203.106 200.688 203.106 200.597 203.106 200.507C203.132 199.862 203.397 199.25 203.849 198.79C203.6 198.439 203.272 198.152 202.891 197.951C202.51 197.75 202.088 197.641 201.657 197.633C200.443 197.633 199.429 198.989 198.65 201.392C191.113 224.709 191.131 249.597 191.167 273.69C191.163 273.929 191.066 274.156 190.897 274.324C190.728 274.493 190.5 274.589 190.262 274.594L190.298 274.54ZM202.98 202.676C201.585 203.091 200.461 204.483 199.574 207.122C196.355 216.642 196.598 226.99 200.262 236.348C200.787 237.65 201.349 238.319 201.965 238.391C202.431 238.383 202.883 238.225 203.251 237.939C205.259 236.259 206.553 233.882 206.875 231.288C203.558 222.133 202.201 212.386 202.889 202.676H202.98ZM208.686 231.143L209.23 232.553C209.755 233.908 210.299 234.595 210.933 234.704C212.002 234.903 212.889 233.294 213.215 232.173C215.408 224.727 212.763 216.629 209.882 209.508C210.657 216.329 210.333 223.231 208.922 229.95C208.759 230.348 208.686 230.745 208.596 231.143H208.686ZM204.809 202.694C204.146 211.072 205.055 219.501 207.491 227.546C208.741 219.774 209.302 211.279 206.53 203.634C206 203.197 205.382 202.876 204.719 202.694H204.809ZM204.972 200.886L205.389 200.995L205.208 200.633H205.009C205.009 200.633 205.009 200.633 205.009 200.796L204.972 200.886Z" fill="#231F20"/>
<path d="M193.903 188.758C193.903 188.758 192.417 198.103 200.824 196.205C200.824 196.205 199.61 203.435 201.911 203.11C204.211 202.784 206.947 194.596 206.929 190.457" fill="white"/>
<path d="M201.838 204.031C201.597 204.028 201.359 203.977 201.138 203.88C200.918 203.784 200.718 203.645 200.552 203.471C199.429 202.278 199.574 199.224 199.809 197.308C198.947 197.465 198.06 197.428 197.214 197.2C196.368 196.971 195.583 196.558 194.918 195.988C192.309 193.548 193.106 188.758 193.106 188.632C193.121 188.513 193.161 188.399 193.221 188.296C193.282 188.193 193.363 188.103 193.46 188.032C193.556 187.961 193.666 187.911 193.783 187.883C193.899 187.856 194.02 187.852 194.139 187.873C194.374 187.913 194.586 188.043 194.727 188.235C194.869 188.427 194.931 188.666 194.899 188.903C194.899 188.903 194.302 192.879 196.204 194.669C196.842 195.143 197.588 195.453 198.375 195.569C199.162 195.686 199.966 195.606 200.715 195.338C200.861 195.303 201.013 195.305 201.159 195.343C201.304 195.381 201.437 195.453 201.548 195.554C201.654 195.66 201.733 195.788 201.78 195.929C201.828 196.07 201.841 196.22 201.82 196.368C201.367 199.007 201.403 201.79 201.911 202.242C203.324 202.061 206.132 194.831 206.114 190.385C206.114 190.145 206.209 189.916 206.379 189.746C206.549 189.577 206.779 189.481 207.02 189.481C207.26 189.481 207.49 189.577 207.66 189.746C207.83 189.916 207.925 190.145 207.925 190.385C207.925 194.145 205.443 203.634 202.11 204.013L201.838 204.031Z" fill="#231F20"/>
<path d="M155.659 112.104L169.627 145.325L140.586 163.02L155.659 112.104Z" fill="#08CAB3"/>
<path d="M154.735 169.31H154.517C154.402 169.281 154.293 169.229 154.198 169.157C154.103 169.086 154.022 168.996 153.962 168.894C153.901 168.792 153.862 168.678 153.845 168.56C153.828 168.443 153.835 168.323 153.865 168.208C159.445 146.193 161.42 103.248 160.315 100.067C160.171 99.9008 160.093 99.6882 160.094 99.4688C160.096 99.2495 160.178 99.0382 160.324 98.8745C160.471 98.7107 160.672 98.6057 160.89 98.579C161.108 98.5523 161.329 98.6057 161.51 98.7293C164.174 100.537 160.659 148.759 155.622 168.659C155.567 168.85 155.45 169.017 155.289 169.135C155.129 169.252 154.934 169.314 154.735 169.31Z" fill="#231F20"/>
<path d="M87.5399 146.121C87.3791 146.121 87.221 146.08 87.0812 146C86.9414 145.921 86.8248 145.807 86.7428 145.669C86.6409 145.485 86.6051 145.271 86.6413 145.064C86.6775 144.857 86.7837 144.669 86.9421 144.53C88.2646 142.723 99.5151 116.713 101.29 110.189C101.353 109.949 101.508 109.744 101.722 109.618C101.936 109.493 102.192 109.457 102.432 109.52C102.672 109.582 102.878 109.737 103.003 109.951C103.129 110.164 103.165 110.419 103.102 110.658C101.888 115.213 89.7501 145 88.0653 146.066C87.9003 146.14 87.7164 146.159 87.5399 146.121Z" fill="#231F20"/>
<path d="M404.419 300.874C404.419 300.874 385.288 325.726 384.853 327.516C384.418 329.305 379.943 360.737 381.23 362.544C382.516 364.352 389.237 365.255 388.35 367.967C387.462 370.678 372.045 371.581 371.121 367.967C370.197 364.352 372.932 322.238 371.121 319.165C369.309 316.093 381.284 289.794 381.284 289.794L404.419 300.874Z" fill="#231F20"/>
<path d="M378.82 371.13H378.295C375.614 371.13 371.048 370.606 370.305 368.147C369.852 366.575 370.052 359.508 370.45 348.103C370.795 337.385 371.338 321.154 370.45 319.527C368.457 316.256 377.697 295.633 380.523 289.379C380.568 289.268 380.637 289.169 380.724 289.088C380.812 289.006 380.917 288.945 381.03 288.909C381.142 288.86 381.262 288.834 381.384 288.834C381.505 288.834 381.626 288.86 381.737 288.909L404.745 300.061C404.868 300.115 404.976 300.197 405.061 300.301C405.146 300.404 405.206 300.526 405.234 300.657C405.267 300.788 405.269 300.924 405.241 301.056C405.212 301.187 405.155 301.311 405.071 301.416C397.825 310.797 386.194 326.251 385.65 327.751C384.98 330.39 381.067 359.743 382.027 362.092C382.874 362.739 383.823 363.24 384.835 363.575C387.154 364.569 390.034 365.78 389.237 368.202C388.44 370.624 381.882 371.13 378.82 371.13ZM381.719 290.951C376.284 303.061 370.994 316.834 371.954 318.569C372.914 320.304 372.805 331.492 372.244 348.157C371.954 357.05 371.646 366.232 372.045 367.641C372.226 368.256 373.856 369.051 377.153 369.268C382.48 369.63 387.208 368.364 387.553 367.587C387.897 366.81 385.741 365.906 384.165 365.201C382.802 364.783 381.56 364.046 380.541 363.05C378.73 360.592 383.875 327.552 383.947 327.263C384.382 325.455 397.861 307.869 403.006 301.163L381.719 290.951Z" fill="#231F20"/>
<path d="M298.944 295.994C298.944 295.994 316.3 311.972 313.636 319.075C310.973 326.178 304.288 347.488 304.288 347.488C304.288 347.488 310.973 370.389 317.205 370.262C323.438 370.136 335.449 373.877 334.996 370.262C334.543 366.647 329.217 366.141 327.876 365.255C326.535 364.37 321.644 363.448 320.756 362.544C319.869 361.641 313.636 347.94 314.977 347.054C316.318 346.169 336.337 323.558 337.677 315.514C339.018 307.471 332.768 276.889 332.768 276.889C332.768 276.889 307.404 277.775 298.944 295.994Z" fill="#231F20"/>
<path d="M332.079 372.774C329.709 372.669 327.348 372.403 325.014 371.979C322.441 371.511 319.837 371.239 317.223 371.166C310.52 371.166 304.198 350.145 303.491 347.669C303.437 347.498 303.437 347.315 303.491 347.145C303.491 346.928 310.212 325.727 312.857 318.678C314.868 313.255 303.111 300.91 298.364 296.572C298.225 296.444 298.131 296.275 298.095 296.09C298.059 295.905 298.084 295.713 298.165 295.542C306.752 277.034 331.717 275.949 332.786 275.913C332.999 275.905 333.207 275.974 333.373 276.107C333.54 276.239 333.653 276.427 333.692 276.636C333.945 277.902 339.942 307.526 338.601 315.605C337.261 323.684 318.383 345.283 315.684 347.633C315.557 349.603 320.412 360.755 321.408 361.93C322.436 362.422 323.51 362.809 324.615 363.087C325.921 363.411 327.186 363.884 328.383 364.496C328.866 364.735 329.369 364.928 329.887 365.075C332.134 365.798 335.503 366.882 335.902 370.154C335.967 370.479 335.948 370.816 335.847 371.132C335.745 371.449 335.565 371.734 335.322 371.961C334.383 372.632 333.224 372.922 332.079 372.774ZM317.586 369.358C320.2 369.454 322.803 369.738 325.376 370.208C328.728 370.714 333.311 371.401 334.144 370.606C334.144 370.606 334.144 370.606 334.144 370.371C333.873 368.238 331.282 367.406 329.38 366.756C328.691 366.574 328.027 366.307 327.405 365.96C326.355 365.459 325.256 365.066 324.126 364.786C322.717 364.492 321.373 363.947 320.158 363.177C319.071 362.129 313.691 350.091 313.926 347.362C313.93 347.146 313.985 346.934 314.086 346.742C314.186 346.551 314.33 346.385 314.506 346.259C316.155 345.048 335.558 322.889 336.808 315.334C337.985 308.303 333.021 282.619 332.079 277.811C327.876 278.155 307.64 280.54 300.085 295.741C303.31 298.778 317.151 312.351 314.578 319.364C312.096 325.925 306.1 345.012 305.321 347.47C307.857 356.038 313.256 369.322 317.242 369.322L317.586 369.358Z" fill="#231F20"/>
<path d="M445.87 216.503L435.181 189.192L459.44 216.503H445.87Z" fill="#231F20"/>
<path d="M459.44 217.497H445.87C445.686 217.498 445.506 217.443 445.354 217.34C445.202 217.237 445.085 217.09 445.019 216.918L434.348 189.626C434.264 189.427 434.254 189.206 434.32 189C434.385 188.795 434.522 188.62 434.706 188.507C434.89 188.393 435.108 188.349 435.321 188.382C435.534 188.415 435.729 188.523 435.87 188.686L460.128 215.997C460.242 216.129 460.317 216.291 460.342 216.464C460.368 216.636 460.344 216.813 460.273 216.973C460.2 217.131 460.082 217.265 459.934 217.358C459.786 217.451 459.614 217.499 459.44 217.497ZM446.414 215.689H457.284L437.736 193.675L446.414 215.689Z" fill="#231F20"/>
<path d="M433.406 222.051C433.406 223.389 383.567 250.971 351.065 245.548C318.564 240.126 297.657 237.559 282.983 262.864C268.308 288.168 273.635 312.605 264.286 320.593C254.938 328.582 235.807 326.811 235.807 328.149C235.807 329.486 233.579 343.675 235.807 353.887C238.035 364.099 242.927 368.111 246.043 366.322C249.159 364.533 242.927 343.675 245.155 336.571C245.155 336.571 258.942 339.68 277.186 332.577C295.429 325.474 303.89 299.681 318.582 294.385C333.275 289.09 341.282 293.464 343.511 294.385C345.739 295.307 356.41 314.376 376.447 315.261C396.484 316.147 404.926 312.153 404.926 312.153C404.926 312.153 401.81 337.909 408.55 339.264C415.289 340.62 437.935 340.15 441.486 343.693C444.385 346.585 447.338 351.103 447.664 355.224C447.619 357.316 448.001 359.394 448.787 361.333C449.102 362 449.614 362.555 450.254 362.924C452.066 363.882 454.204 362.617 455.454 361.116C459.929 355.55 456.36 352.242 453.642 347.145C451.722 343.53 448.859 336.752 444.584 335.342C439.239 333.535 422.844 328.673 422.844 328.673C422.844 328.673 419.728 307.815 421.503 302.031C423.279 296.247 458.878 244.753 464.222 241.644C469.567 238.535 494.043 237.216 499.822 229.209C501.494 227.218 502.41 224.703 502.41 222.106C502.41 219.508 501.494 216.994 499.822 215.002C499.822 215.002 479.803 216.34 466.904 213.195C458.393 211.389 449.598 211.389 441.087 213.195L424.166 189.21L433.406 222.051Z" fill="#231F20"/>
<path d="M244.503 367.678C243.828 367.67 243.161 367.523 242.546 367.244C239.249 365.762 236.387 360.863 234.919 354.122C233.108 345.518 234.267 334.113 234.738 329.83C234.829 328.962 234.901 328.402 234.901 328.185C234.901 326.938 236.097 326.847 240.101 326.576C246.134 326.142 257.366 325.347 263.652 319.943C267.747 316.436 268.888 309.279 270.337 300.206C272.059 289.487 274.214 276.13 282.15 262.448C297.549 235.897 320.032 239.584 351.174 244.699C381.393 249.651 427.898 225.413 432.337 221.817L423.134 189.445C423.079 189.241 423.097 189.023 423.187 188.831C423.276 188.639 423.43 188.484 423.622 188.393C423.814 188.303 424.032 188.283 424.237 188.336C424.443 188.39 424.623 188.513 424.746 188.686L441.305 212.183C449.767 210.459 458.495 210.502 466.94 212.309C479.622 215.346 499.405 214.117 499.55 214.117C499.685 214.108 499.82 214.129 499.945 214.18C500.071 214.23 500.183 214.307 500.275 214.406C502.062 216.569 503.04 219.284 503.04 222.088C503.04 224.891 502.062 227.607 500.275 229.769C496.325 235.192 484.622 237.632 475.237 239.566C471.516 240.106 467.869 241.07 464.367 242.44C459.114 245.512 423.587 297.386 422.065 302.32C420.543 307.255 422.862 324.624 423.333 327.986C426.268 328.854 439.892 332.92 444.62 334.493C448.678 335.848 451.396 341.217 453.371 345.139C453.66 345.717 453.932 346.259 454.186 346.729C454.639 347.597 455.128 348.41 455.581 349.187C457.845 353.001 459.983 356.598 455.889 361.713C454.403 363.52 451.776 365.021 449.548 363.81C448.763 363.345 448.133 362.66 447.736 361.84C446.967 360.135 446.565 358.287 446.559 356.417V355.477C446.233 351.411 443.171 347.037 440.653 344.524C438.569 342.446 427.59 341.795 419.565 341.325C415.757 341.196 411.96 340.864 408.187 340.331C406.956 340.078 401.086 337.656 403.731 313.743C400.506 314.828 391.882 317.051 376.266 316.364C360.178 315.659 350.142 303.712 345.323 297.928C344.694 296.952 343.966 296.043 343.149 295.217L342.587 294.964C339.743 293.717 332.188 290.409 318.89 295.235C312.133 297.675 306.643 304.742 300.774 312.243C294.125 320.792 287.277 329.613 277.494 333.426C261.569 339.626 249.123 338.18 245.789 337.62C245.083 341.235 245.971 347.488 246.768 353.128C247.945 361.532 248.471 365.961 246.46 367.117C245.866 367.468 245.193 367.66 244.503 367.678ZM236.677 328.709C236.677 329.034 236.677 329.468 236.532 330.01C236.079 334.24 234.883 345.428 236.695 353.742C238.271 360.972 241.133 364.587 243.289 365.581C243.643 365.769 244.038 365.868 244.44 365.868C244.841 365.868 245.236 365.769 245.59 365.581C246.641 364.984 245.59 357.737 245.01 353.417C244.086 346.838 243.199 340.06 244.286 336.336C244.357 336.122 244.506 335.941 244.704 335.831C244.902 335.72 245.134 335.688 245.355 335.74C245.481 335.74 259.123 338.686 276.86 331.782C286.171 328.167 292.893 319.527 299.379 311.177C305.375 303.459 311.028 296.193 318.274 293.572C332.26 288.511 340.286 292.018 343.312 293.337L343.855 293.572C344.507 293.843 345.196 294.657 346.844 296.609C351.5 302.158 361.175 313.725 376.483 314.394C395.995 315.262 404.455 311.412 404.546 311.376C404.691 311.306 404.852 311.277 405.012 311.293C405.172 311.309 405.324 311.369 405.452 311.466C405.585 311.557 405.691 311.682 405.758 311.829C405.825 311.975 405.851 312.137 405.832 312.297C404.655 321.931 404.401 337.602 408.659 338.397C412.352 338.918 416.072 339.237 419.8 339.355C431.322 340.042 439.729 340.692 442.066 343.078C444.928 345.934 448.117 350.615 448.479 355.17V356.146C448.475 357.785 448.802 359.408 449.439 360.918C449.679 361.426 450.063 361.854 450.544 362.147C451.794 362.834 453.534 361.84 454.602 360.502C457.918 356.381 456.414 353.851 454.15 350.037C453.678 349.224 453.171 348.392 452.718 347.506C452.447 347.018 452.175 346.476 451.885 345.88C450.073 342.446 447.519 337.258 444.167 336.138C438.913 334.33 422.554 329.54 422.427 329.486C422.262 329.436 422.114 329.34 422.002 329.208C421.889 329.077 421.817 328.916 421.793 328.745C421.666 327.896 418.677 307.616 420.489 301.633C422.3 295.651 458.153 243.922 463.625 240.741C465.636 239.566 469.766 238.716 475.002 237.65C483.625 235.842 495.401 233.456 498.952 228.613C503.572 222.232 500.293 217.171 499.278 215.96C496.144 216.141 478.498 217.009 466.541 214.153C458.18 212.385 449.54 212.385 441.178 214.153C441.003 214.193 440.82 214.18 440.652 214.115C440.484 214.051 440.339 213.938 440.236 213.791L426.485 194L434.366 221.744C434.375 221.822 434.375 221.901 434.366 221.979C434.349 222.175 434.291 222.366 434.194 222.537C434.097 222.709 433.964 222.857 433.805 222.973C429.547 226.588 382.371 251.567 350.975 246.47C317.532 241.048 297.911 239.06 283.816 263.352C276.044 276.727 273.943 289.903 272.24 300.477C270.736 309.912 269.54 317.358 264.993 321.298C258.199 327.1 246.586 327.914 240.336 328.348C238.796 328.474 237.329 328.582 236.677 328.709Z" fill="#231F20"/>
<path d="M297.513 259.917C290.628 259.917 279.631 258.49 274.323 250.067C267.185 238.752 266.95 235.101 267.076 234.252C267.103 234.014 267.175 233.784 267.291 233.575C267.406 233.366 267.561 233.181 267.748 233.032C267.935 232.883 268.149 232.771 268.379 232.705C268.609 232.638 268.849 232.617 269.087 232.643C269.325 232.669 269.556 232.742 269.766 232.857C269.975 232.972 270.16 233.127 270.31 233.313C270.46 233.499 270.571 233.713 270.638 233.943C270.705 234.172 270.726 234.412 270.7 234.649C270.7 234.649 270.881 237.74 277.439 248.133C283.997 258.526 302.803 255.995 303.002 255.977C303.24 255.942 303.482 255.953 303.716 256.011C303.949 256.069 304.169 256.172 304.363 256.315C304.556 256.458 304.719 256.637 304.843 256.843C304.967 257.048 305.05 257.276 305.085 257.514C305.121 257.751 305.11 257.993 305.051 258.226C304.993 258.459 304.89 258.678 304.747 258.871C304.604 259.064 304.424 259.227 304.218 259.351C304.012 259.475 303.783 259.557 303.545 259.592C301.545 259.847 299.529 259.956 297.513 259.917Z" fill="#231F20"/>
<path d="M307.513 303.567C307.315 303.562 307.124 303.492 306.969 303.368C306.876 303.297 306.798 303.209 306.739 303.108C306.681 303.006 306.643 302.895 306.627 302.779C306.612 302.663 306.62 302.545 306.651 302.432C306.682 302.319 306.735 302.214 306.806 302.121C306.915 301.977 317.223 288.963 333.547 290.987C333.782 291.023 333.995 291.149 334.14 291.337C334.285 291.526 334.352 291.763 334.326 292C334.294 292.237 334.17 292.452 333.979 292.597C333.789 292.743 333.549 292.808 333.311 292.777C318.057 290.879 308.328 303.097 308.238 303.224C308.149 303.33 308.038 303.415 307.913 303.475C307.788 303.534 307.651 303.565 307.513 303.567Z" fill="white"/>
<path d="M383.821 317.575C378.524 317.418 373.28 316.48 368.258 314.792C368.032 314.71 367.847 314.543 367.742 314.327C367.637 314.111 367.621 313.863 367.697 313.635C367.778 313.41 367.946 313.226 368.164 313.124C368.381 313.023 368.63 313.011 368.856 313.093C369.001 313.093 384.129 318.334 391.828 314.141C392.04 314.026 392.288 313.999 392.519 314.067C392.634 314.101 392.74 314.156 392.833 314.231C392.926 314.306 393.003 314.398 393.06 314.502C393.117 314.607 393.153 314.721 393.166 314.84C393.178 314.958 393.168 315.078 393.134 315.192C393.1 315.306 393.045 315.412 392.97 315.505C392.895 315.598 392.802 315.674 392.698 315.731C389.935 317.064 386.887 317.697 383.821 317.575Z" fill="white"/>
<path d="M501.488 219.72C503.5 219.72 505.13 218.093 505.13 216.087C505.13 214.081 503.5 212.454 501.488 212.454C499.477 212.454 497.847 214.081 497.847 216.087C497.847 218.093 499.477 219.72 501.488 219.72Z" fill="#231F20"/>
<path d="M501.488 220.623C500.589 220.623 499.71 220.357 498.962 219.859C498.214 219.36 497.631 218.652 497.287 217.823C496.943 216.994 496.853 216.082 497.029 215.202C497.204 214.322 497.637 213.513 498.273 212.879C498.909 212.244 499.719 211.812 500.601 211.637C501.483 211.462 502.398 211.552 503.229 211.895C504.06 212.239 504.77 212.82 505.269 213.566C505.769 214.312 506.036 215.189 506.036 216.087C506.031 217.288 505.55 218.44 504.699 219.289C503.847 220.139 502.693 220.619 501.488 220.623ZM501.488 213.394C500.947 213.394 500.419 213.554 499.969 213.854C499.519 214.154 499.168 214.58 498.961 215.078C498.754 215.577 498.7 216.126 498.805 216.655C498.911 217.185 499.172 217.671 499.554 218.053C499.937 218.434 500.424 218.694 500.955 218.8C501.485 218.905 502.035 218.851 502.535 218.644C503.035 218.438 503.462 218.088 503.763 217.639C504.064 217.19 504.224 216.663 504.224 216.123C504.227 215.762 504.158 215.404 504.021 215.07C503.885 214.736 503.684 214.432 503.43 214.175C503.176 213.918 502.874 213.714 502.541 213.574C502.208 213.433 501.85 213.36 501.488 213.358V213.394Z" fill="#231F20"/>
<path d="M460.617 218.111C460.137 218.111 459.676 218.302 459.336 218.64C458.996 218.979 458.806 219.439 458.806 219.919C458.806 220.398 458.996 220.858 459.336 221.197C459.676 221.536 460.137 221.726 460.617 221.726C461.098 221.726 461.559 221.536 461.898 221.197C462.238 220.858 462.429 220.398 462.429 219.919C462.429 219.439 462.238 218.979 461.898 218.64C461.559 218.302 461.098 218.111 460.617 218.111Z" fill="white"/>
<path d="M399.401 235.192L435.181 282.005L443.95 273.528L411.992 228.739L399.401 235.192Z" fill="white"/>
<path d="M435.181 282.908C435.054 282.902 434.93 282.868 434.817 282.809C434.704 282.75 434.606 282.666 434.529 282.565L398.73 235.734C398.652 235.629 398.597 235.509 398.569 235.381C398.541 235.253 398.54 235.121 398.567 234.993C398.599 234.863 398.657 234.742 398.738 234.636C398.819 234.53 398.921 234.442 399.038 234.378L411.63 227.944C411.82 227.843 412.041 227.814 412.252 227.864C412.462 227.914 412.646 228.039 412.771 228.215L444.747 273.003C444.873 273.18 444.931 273.395 444.911 273.611C444.891 273.827 444.794 274.028 444.638 274.178L435.87 282.655C435.779 282.743 435.671 282.811 435.552 282.854C435.434 282.898 435.307 282.916 435.181 282.908ZM400.76 235.499L435.272 280.685L442.754 273.455L411.684 229.95L400.76 235.499Z" fill="#231F20"/>
<path d="M466.342 230.348C466.223 230.356 466.104 230.341 465.991 230.303C465.878 230.265 465.773 230.206 465.683 230.128C465.501 229.97 465.39 229.747 465.373 229.507C465.356 229.268 465.435 229.031 465.593 228.85C465.751 228.668 465.975 228.557 466.215 228.54C479.006 226.895 501.253 225.106 501.47 225.088C501.589 225.078 501.709 225.092 501.823 225.128C501.937 225.165 502.042 225.223 502.133 225.301C502.224 225.378 502.299 225.472 502.353 225.579C502.407 225.685 502.44 225.801 502.449 225.919C502.459 226.157 502.379 226.39 502.225 226.571C502.07 226.752 501.852 226.868 501.615 226.895C501.398 226.895 479.187 228.703 466.451 230.33L466.342 230.348Z" fill="white"/>
<path d="M453.66 212.345H453.57C450.053 212.101 446.524 212.101 443.008 212.345C442.889 212.354 442.769 212.339 442.656 212.301C442.543 212.263 442.439 212.204 442.349 212.125C442.167 211.968 442.055 211.745 442.038 211.505C442.022 211.265 442.101 211.029 442.259 210.847C442.417 210.666 442.641 210.555 442.881 210.538C446.5 210.286 450.132 210.286 453.751 210.538C453.991 210.552 454.216 210.661 454.376 210.841C454.535 211.021 454.617 211.256 454.602 211.496C454.588 211.736 454.479 211.96 454.299 212.119C454.119 212.278 453.882 212.36 453.642 212.345H453.66Z" fill="white"/>
<path d="M390.433 233.041C360.069 233.041 317.966 225.052 285.519 217.587C242.999 207.845 207.02 196.928 206.675 196.801C206.561 196.768 206.455 196.713 206.362 196.638C206.269 196.564 206.192 196.472 206.135 196.368C206.078 196.264 206.041 196.15 206.028 196.032C206.016 195.914 206.026 195.795 206.059 195.681C206.134 195.453 206.295 195.263 206.509 195.151C206.722 195.04 206.97 195.016 207.201 195.084C208.632 195.518 350.902 238.59 407.354 230.149C407.473 230.131 407.594 230.137 407.711 230.166C407.828 230.195 407.938 230.246 408.034 230.318C408.131 230.389 408.213 230.479 408.275 230.581C408.337 230.684 408.378 230.798 408.396 230.917C408.414 231.036 408.408 231.157 408.379 231.273C408.35 231.39 408.298 231.499 408.227 231.596C408.155 231.692 408.065 231.774 407.962 231.836C407.859 231.897 407.745 231.938 407.626 231.956C401.929 232.734 396.183 233.097 390.433 233.041Z" fill="#231F20"/>
</svg>
