<svg id="Capa_1" data-name="Capa 1" xmlns="http://www.w3.org/2000/svg" viewBox="0 0 824.66 839.41"><defs><style>.cls-1{fill:#08cab3;}</style></defs><title>petPlace</title><path class="cls-1" d="M802.63,276.24,733,219.56a34.73,34.73,0,0,0,1.29-9.29V111.6a34.82,34.82,0,0,0-34.82-34.82H653a34.82,34.82,0,0,0-34.82,34.82v14.57l-91-74c-20.53-16.7-53.91-16.11-73.54,1.31L201.26,277.55c-30.15,26.76-6.95,70.08,37.54,70.08h4.67v167a37.46,37.46,0,0,0,4.06,17.21c52.82,101.43,155.52,163.74,264.86,160C615,688.26,708.56,627,757.93,531.84a37.19,37.19,0,0,0,4-17.12V347.63h4.67C812.18,347.63,834.93,302.52,802.63,276.24Zm-286,6.92c9-29.18,36.92-46.49,62.42-38.65s38.92,37.85,30,67S572.05,358,546.54,350.2,507.63,312.35,516.6,283.16Zm-85.89-40.24c25.81-6.79,53,11.65,60.79,41.18s-6.86,59-32.67,65.76-53-11.66-60.78-41.19S404.91,249.7,430.71,242.92ZM330.25,379.17C319.12,355.89,326,329.4,345.66,320s44.59,1.86,55.72,25.14,4.24,49.76-15.41,59.16S341.39,402.44,330.25,379.17ZM461.72,589c-78.35-4.84-100.6-76.42-67.71-148s113.17-70.61,113.17-70.61,58-4.84,100.61,65.78C666.79,607.35,540.07,593.81,461.72,589ZM675,382.35c-11.32,23.19-36.35,34.25-55.92,24.69S592.82,371,604.14,347.76s36.36-34.24,55.92-24.69S686.31,359.16,675,382.35Z" transform="translate(-93.44 -40.02)"/><path class="cls-1" d="M184.59,812.46q-5,9.07-15.46,14.65t-25.89,5.57H124.19V878H93.44V751.78h49.8q15.1,0,25.53,5.21a35.8,35.8,0,0,1,15.64,14.39,41.74,41.74,0,0,1,5.22,21A40.61,40.61,0,0,1,184.59,812.46ZM154,804.1q4.32-4.14,4.32-11.69T154,780.72q-4.32-4.12-13.12-4.13H124.19v31.64h16.72Q149.72,808.23,154,804.1Z" transform="translate(-93.44 -40.02)"/><path class="cls-1" d="M299.65,835.2H230.08q.72,9.34,6,14.29a18.37,18.37,0,0,0,13,5q11.5,0,16-9.71h32.72a45.16,45.16,0,0,1-25.53,30.2,52.84,52.84,0,0,1-22.12,4.5,53.76,53.76,0,0,1-26.25-6.3,44.63,44.63,0,0,1-18-18q-6.48-11.67-6.48-27.32t6.39-27.33a44.13,44.13,0,0,1,17.89-18q11.49-6.28,26.42-6.29a53.7,53.7,0,0,1,25.89,6.11,43.91,43.91,0,0,1,17.71,17.44q6.38,11.33,6.38,26.43A78.41,78.41,0,0,1,299.65,835.2Zm-30.92-17.08q0-7.9-5.39-12.59a19.89,19.89,0,0,0-13.49-4.67,19.49,19.49,0,0,0-13,4.49q-5.31,4.5-6.56,12.77Z" transform="translate(-93.44 -40.02)"/><path class="cls-1" d="M372.29,851.92V878H356.65q-16.72,0-26.07-8.18t-9.35-26.7V803.2H309V777.67h12.23V753.22H352v24.45h20.14V803.2H352v40.27c0,3,.72,5.15,2.16,6.47s3.83,2,7.19,2Z" transform="translate(-93.44 -40.02)"/><path class="cls-1" d="M518.63,812.46a37.08,37.08,0,0,1-15.46,14.65q-10.44,5.58-25.89,5.57H458.22V878H427.48V751.78h49.8q15.09,0,25.53,5.21a35.86,35.86,0,0,1,15.64,14.39,41.84,41.84,0,0,1,5.21,21A40.71,40.71,0,0,1,518.63,812.46Zm-30.57-8.36q4.32-4.14,4.32-11.69t-4.32-11.69q-4.31-4.12-13.12-4.13H458.22v31.64h16.72Q483.75,808.23,488.06,804.1Z" transform="translate(-93.44 -40.02)"/><path class="cls-1" d="M570.4,745V878H539.66V745Z" transform="translate(-93.44 -40.02)"/><path class="cls-1" d="M592.43,800.5a43.53,43.53,0,0,1,15.91-18,41.56,41.56,0,0,1,22.47-6.29,38.71,38.71,0,0,1,18.61,4.31,31.82,31.82,0,0,1,12.31,11.33v-14.2h30.75V878H661.73V863.78a33.15,33.15,0,0,1-12.49,11.33,38.6,38.6,0,0,1-18.61,4.32A40.74,40.74,0,0,1,608.34,873a43.92,43.92,0,0,1-15.91-18.16q-5.85-11.76-5.85-27.23T592.43,800.5Zm62.92,9.17a21.61,21.61,0,0,0-31.1-.09q-6.39,6.57-6.38,18.07t6.38,18.25a21.41,21.41,0,0,0,31.1.09q6.38-6.66,6.38-18.16T655.35,809.67Z" transform="translate(-93.44 -40.02)"/><path class="cls-1" d="M715,800.5a44.32,44.32,0,0,1,17.79-18A53.37,53.37,0,0,1,759,776.23q18.88,0,31.56,9.89T807.18,814H774.46q-4.14-11.49-16-11.5A16.13,16.13,0,0,0,745,809q-5,6.57-5,18.79t5,18.79a16.13,16.13,0,0,0,13.48,6.56q11.87,0,16-11.51h32.72q-4,17.63-16.72,27.69T759,879.43a53.27,53.27,0,0,1-26.16-6.3,44.2,44.2,0,0,1-17.79-18q-6.39-11.67-6.39-27.32T715,800.5Z" transform="translate(-93.44 -40.02)"/><path class="cls-1" d="M917.56,835.2H848q.71,9.34,6,14.29a18.37,18.37,0,0,0,13,5q11.51,0,16-9.71h32.72a45.11,45.11,0,0,1-25.52,30.2,52.84,52.84,0,0,1-22.12,4.5,53.76,53.76,0,0,1-26.25-6.3,44.71,44.71,0,0,1-18-18q-6.46-11.67-6.47-27.32t6.38-27.33a44.25,44.25,0,0,1,17.89-18q11.5-6.28,26.43-6.29A53.7,53.7,0,0,1,894,782.34a44,44,0,0,1,17.71,17.44q6.38,11.33,6.38,26.43A78.41,78.41,0,0,1,917.56,835.2Zm-30.92-17.08q0-7.9-5.39-12.59a19.89,19.89,0,0,0-13.49-4.67,19.49,19.49,0,0,0-13,4.49q-5.31,4.5-6.56,12.77Z" transform="translate(-93.44 -40.02)"/></svg>